<svg xmlns="http://www.w3.org/2000/svg" xmlns:xlink="http://www.w3.org/1999/xlink" width="414" height="200" viewBox="0 0 414 200">
  <defs>
    <clipPath id="clip-path">
      <path id="Rectangle_109" data-name="Rectangle 109" d="M0,0H414a0,0,0,0,1,0,0V200a0,0,0,0,1,0,0H30A30,30,0,0,1,0,170V0A0,0,0,0,1,0,0Z" fill="#0088c6"/>
    </clipPath>
    <linearGradient id="linear-gradient" x1="0.262" y1="-0.441" x2="0.659" y2="1.131" gradientUnits="objectBoundingBox">
      <stop offset="0" stop-color="#2a2af9"/>
      <stop offset="0.105" stop-color="#2832f9"/>
      <stop offset="0.269" stop-color="#2348f9"/>
      <stop offset="0.472" stop-color="#1b6dfb"/>
      <stop offset="0.707" stop-color="#10a0fc"/>
      <stop offset="0.965" stop-color="#02e0fe"/>
      <stop offset="1" stop-color="#00eaff"/>
    </linearGradient>
    <linearGradient id="linear-gradient-3" y1="0.5" x2="1" y2="0.5" gradientUnits="objectBoundingBox">
      <stop offset="0" stop-color="#fff" stop-opacity="0"/>
      <stop offset="0.996" stop-color="#fff" stop-opacity="0.4"/>
    </linearGradient>
    <linearGradient id="linear-gradient-4" x1="0.139" y1="0.247" x2="0.895" y2="0.778" gradientUnits="objectBoundingBox">
      <stop offset="0" stop-color="#fff" stop-opacity="0"/>
      <stop offset="0.998" stop-color="#fff" stop-opacity="0.4"/>
    </linearGradient>
    <linearGradient id="linear-gradient-5" x1="0.139" y1="0.247" x2="0.895" y2="0.778" gradientUnits="objectBoundingBox">
      <stop offset="0" stop-color="#fff" stop-opacity="0"/>
      <stop offset="1" stop-color="#fff" stop-opacity="0.4"/>
    </linearGradient>
  </defs>
  <g id="Mask_Group_19" data-name="Mask Group 19" clip-path="url(#clip-path)" style="mix-blend-mode: soft-light;isolation: isolate">
    <g id="Group_630" data-name="Group 630" transform="translate(0.228 -2.669)" opacity="0.5" style="mix-blend-mode: soft-light;isolation: isolate">
      <path id="Path_657" data-name="Path 657" d="M383.544,0H0V379.669C140,376,369,276,383.544,0Z" fill="url(#linear-gradient)"/>
      <path id="Path_658" data-name="Path 658" d="M220,0H0V217.777C80.3,215.673,211.658,158.313,220,0Z" fill="url(#linear-gradient)"/>
      <path id="Path_659" data-name="Path 659" d="M0,88.1C32.486,87.25,85.625,64.045,89,0" fill="none" stroke="#fff" stroke-miterlimit="10" stroke-width="1" style="mix-blend-mode: soft-light;isolation: isolate"/>
      <path id="Path_660" data-name="Path 660" d="M0,361.642C133.353,358.148,351.48,262.9,365.333,0" fill="none" stroke="#fff" stroke-miterlimit="10" stroke-width="1" style="mix-blend-mode: soft-light;isolation: isolate"/>
      <g id="Group_626" data-name="Group 626">
        <path id="Path_661" data-name="Path 661" d="M206.585,201.333a80.644,80.644,0,1,0,80.643,80.644A80.644,80.644,0,0,0,206.585,201.333Zm0,139.455A58.811,58.811,0,1,1,265.4,281.977,58.81,58.81,0,0,1,206.585,340.788Z" fill="url(#linear-gradient-3)"/>
      </g>
      <circle id="Ellipse_14" data-name="Ellipse 14" cx="36.007" cy="36.007" r="36.007" transform="translate(98.25 227.29)" fill="url(#linear-gradient-4)"/>
      <g id="Group_628" data-name="Group 628">
        <circle id="Ellipse_15" data-name="Ellipse 15" cx="106.624" cy="106.624" r="106.624" transform="translate(64.134 31.141) rotate(-45)" fill="url(#linear-gradient-5)"/>
        <circle id="Ellipse_16" data-name="Ellipse 16" cx="59.535" cy="59.535" r="59.535" transform="translate(155.388 -28.394)" fill="url(#linear-gradient-5)"/>
        <g id="Group_627" data-name="Group 627" style="mix-blend-mode: soft-light;isolation: isolate">
          <circle id="Ellipse_17" data-name="Ellipse 17" cx="85.779" cy="85.779" r="85.779" transform="translate(93.614 31.141) rotate(-45)" fill="none" stroke="#fff" stroke-miterlimit="10" stroke-width="1"/>
        </g>
      </g>
    </g>
  </g>
</svg>
