<svg xmlns="http://www.w3.org/2000/svg" xmlns:xlink="http://www.w3.org/1999/xlink" width="428" height="926" viewBox="0 0 428 926">
  <defs>
    <linearGradient id="linear-gradient" x1="0.5" x2="0.5" y2="1" gradientUnits="objectBoundingBox">
      <stop offset="0" stop-color="#43cef8"/>
      <stop offset="1" stop-color="#0088c6"/>
    </linearGradient>
    <clipPath id="clip-path">
      <rect id="Rectangle_651" data-name="Rectangle 651" width="414" height="896" fill="none" stroke="#707070" stroke-width="1"/>
    </clipPath>
    <clipPath id="clip-path-2">
      <path id="Rectangle_109" data-name="Rectangle 109" d="M0,0H414a0,0,0,0,1,0,0V879a0,0,0,0,1,0,0H30A30,30,0,0,1,0,849V0A0,0,0,0,1,0,0Z" fill="#0088c6"/>
    </clipPath>
    <linearGradient id="linear-gradient-2" x1="0.139" y1="0.247" x2="0.895" y2="0.778" gradientUnits="objectBoundingBox">
      <stop offset="0" stop-color="#fff" stop-opacity="0"/>
      <stop offset="1" stop-color="#fff" stop-opacity="0.4"/>
    </linearGradient>
    <linearGradient id="linear-gradient-3" y1="0.5" x2="1" y2="0.5" gradientUnits="objectBoundingBox">
      <stop offset="0" stop-color="#fff" stop-opacity="0.4"/>
      <stop offset="1" stop-color="#fff" stop-opacity="0"/>
    </linearGradient>
  </defs>
  <path id="Path_1421" data-name="Path 1421" d="M0,0H414V896H0Z" transform="translate(0 30)" fill="url(#linear-gradient)"/>
  <g id="Mask_Group_42" data-name="Mask Group 42" transform="translate(14)" clip-path="url(#clip-path)" style="mix-blend-mode: soft-light;isolation: isolate">
    <g id="Group_2540" data-name="Group 2540" transform="translate(-6671.992 -7216.07)">
      <g id="Group_2542" data-name="Group 2542" transform="translate(6547.231 7241.617)" opacity="0.5">
        <path id="Path_1378" data-name="Path 1378" d="M6690.5,7284a108.337,108.337,0,1,0,108.337,108.337A108.337,108.337,0,0,0,6690.5,7284Zm0,204.209a95.872,95.872,0,1,1,95.872-95.872A95.872,95.872,0,0,1,6690.5,7488.209Z" transform="translate(-6565.736 -7267.576)" fill="url(#linear-gradient-2)"/>
        <g id="Group_2541" data-name="Group 2541" transform="translate(0 0)" style="mix-blend-mode: soft-light;isolation: isolate">
          <circle id="Ellipse_178" data-name="Ellipse 178" cx="88.22" cy="88.22" r="88.22" transform="translate(0 124.761) rotate(-45)" fill="none" stroke="#fff" stroke-miterlimit="10" stroke-width="1"/>
        </g>
      </g>
      <path id="Path_1379" data-name="Path 1379" d="M6730.609,7440.051a72.26,72.26,0,0,1-62.866-107.858,72.732,72.732,0,0,1,24.726-25.745,115.786,115.786,0,0,0,15.083-11.179l.714-.624c7.244-6.3,15.632-32.222,18.252-41.68L6731.5,7235l2.877,18.418c.041.26,4.213,26.215,14.816,39.173l.093.114A37.9,37.9,0,0,0,6762,7302.727h0a72.253,72.253,0,0,1-31.326,137.325Zm-.833-170.606c-3.9,11.249-9.874,25.75-16.228,31.276l-.69.6a123.965,123.965,0,0,1-16.133,11.958A64.211,64.211,0,0,0,6730.609,7432h.059a64.2,64.2,0,0,0,27.832-122.026h0a46.022,46.022,0,0,1-15.451-12.175l-.1-.118C6736.575,7289.887,6732.355,7278.536,6729.775,7269.445Z" transform="translate(-58.876)" fill="url(#linear-gradient-3)"/>
    </g>
    <g id="Group_2547" data-name="Group 2547" transform="translate(-6499.927 -6726.687)">
      <g id="Group_2542-2" data-name="Group 2542" transform="translate(6547.231 7243.457)" opacity="0.5">
        <path id="Path_1378-2" data-name="Path 1378" d="M6720.625,7284a138.465,138.465,0,1,0,138.466,138.465A138.465,138.465,0,0,0,6720.625,7284Zm0,261a122.534,122.534,0,1,1,122.534-122.534A122.535,122.535,0,0,1,6720.625,7545Z" transform="translate(-6561.168 -7263.009)" fill="url(#linear-gradient-2)"/>
        <g id="Group_2541-2" data-name="Group 2541" transform="translate(0 0)" style="mix-blend-mode: soft-light;isolation: isolate">
          <circle id="Ellipse_178-2" data-name="Ellipse 178" cx="112.754" cy="112.754" r="112.754" transform="translate(0 159.458) rotate(-45)" fill="none" stroke="#fff" stroke-miterlimit="10" stroke-width="1"/>
        </g>
      </g>
      <path id="Path_1379-2" data-name="Path 1379" d="M6750.7,7497.076a92.356,92.356,0,0,1-80.349-137.854,92.967,92.967,0,0,1,31.6-32.905,148.1,148.1,0,0,0,19.277-14.288l.913-.8c9.259-8.051,19.979-41.183,23.327-53.271l6.364-22.961,3.678,23.541c.052.332,5.385,33.5,18.937,50.067l.118.146a48.459,48.459,0,0,0,16.256,12.808h0a92.346,92.346,0,0,1-40.038,175.515Zm-1.065-218.053c-4.989,14.377-12.619,32.912-20.74,39.975l-.882.77a158.506,158.506,0,0,1-20.62,15.284,82.068,82.068,0,0,0,43.309,151.735h.075a82.057,82.057,0,0,0,35.571-155.962h0a58.812,58.812,0,0,1-19.747-15.562l-.123-.15C6758.325,7305.15,6752.932,7290.643,6749.634,7279.023Z" transform="translate(-44.343)" fill="url(#linear-gradient-3)"/>
    </g>
    <g id="Group_2541-3" data-name="Group 2541" transform="translate(-6292.895 -7313.02)">
      <g id="Group_2545" data-name="Group 2545" transform="translate(6547.231 7240.58)" opacity="0.5">
        <path id="Path_1380" data-name="Path 1380" d="M6673.522,7284a91.362,91.362,0,1,0,91.362,91.362A91.362,91.362,0,0,0,6673.522,7284Zm0,172.212a80.85,80.85,0,1,1,80.85-80.85A80.851,80.851,0,0,1,6673.522,7456.213Z" transform="translate(-6568.309 -7270.149)" fill="url(#linear-gradient-2)"/>
        <g id="Group_2544" data-name="Group 2544" transform="translate(0 0)" style="mix-blend-mode: soft-light;isolation: isolate">
          <circle id="Ellipse_179" data-name="Ellipse 179" cx="74.397" cy="74.397" r="74.397" transform="translate(0 105.213) rotate(-45)" fill="none" stroke="#fff" stroke-miterlimit="10" stroke-width="1"/>
        </g>
      </g>
      <path id="Path_1381" data-name="Path 1381" d="M6719.29,7407.922a60.938,60.938,0,0,1-53.016-90.958,61.33,61.33,0,0,1,20.852-21.712,97.685,97.685,0,0,0,12.72-9.427l.6-.526c6.109-5.313,13.182-27.174,15.392-35.15l4.2-15.149,2.426,15.533c.035.219,3.553,22.107,12.495,33.035l.079.1a31.964,31.964,0,0,0,10.726,8.451h0a60.932,60.932,0,0,1-26.418,115.808Zm-.7-143.875c-3.293,9.485-8.327,21.716-13.686,26.375l-.582.508a104.493,104.493,0,0,1-13.605,10.084,54.15,54.15,0,0,0,28.576,100.118h.05a54.143,54.143,0,0,0,23.47-102.907h0a38.812,38.812,0,0,1-13.029-10.268l-.081-.1C6724.321,7281.287,6720.762,7271.714,6718.587,7264.048Z" transform="translate(-67.064)" fill="url(#linear-gradient-3)"/>
    </g>
    <g id="Group_2546" data-name="Group 2546" transform="translate(-5040.98 -6812)" opacity="0.1">
      <path id="Path_1366" data-name="Path 1366" d="M5248.389,7563.611a206,206,0,1,1-80.448,16.236,205.378,205.378,0,0,1,80.448-16.236m0-20.255c-125.34,0-226.949,101.609-226.949,226.949s101.609,226.949,226.949,226.949,226.949-101.609,226.949-226.949-101.608-226.949-226.949-226.949Z" transform="translate(0 -57.358)" fill="#fff"/>
      <path id="Path_1367" data-name="Path 1367" d="M5402.054,7489.614C5431.516,7478.336,5439.8,7430,5439.8,7430s7.014,54.781,42.176,59.615Z" transform="translate(-192.59 0)" fill="#fff"/>
    </g>
  </g>
</svg>
