<svg xmlns="http://www.w3.org/2000/svg" xmlns:xlink="http://www.w3.org/1999/xlink" width="414" height="125.996" viewBox="0 0 414 125.996">
  <defs>
    <linearGradient id="linear-gradient" x1="0.5" x2="0.5" y2="1" gradientUnits="objectBoundingBox">
      <stop offset="0" stop-color="#43cef8"/>
      <stop offset="1" stop-color="#0088c6"/>
    </linearGradient>
    <clipPath id="clip-path">
      <path id="Subtraction_6" data-name="Subtraction 6" d="M16720,18686h0a36.033,36.033,0,0,0-36-36h-342a36.115,36.115,0,0,0-36,35.617l0-125.613h414Z" transform="translate(-16306 -18560)" fill="url(#linear-gradient)"/>
    </clipPath>
    <linearGradient id="linear-gradient-3" x1="0.139" y1="0.247" x2="0.895" y2="0.778" gradientUnits="objectBoundingBox">
      <stop offset="0" stop-color="#fff" stop-opacity="0"/>
      <stop offset="1" stop-color="#fff" stop-opacity="0.4"/>
    </linearGradient>
    <linearGradient id="linear-gradient-4" y1="0.5" x2="1" y2="0.5" gradientUnits="objectBoundingBox">
      <stop offset="0" stop-color="#fff" stop-opacity="0.4"/>
      <stop offset="1" stop-color="#fff" stop-opacity="0"/>
    </linearGradient>
  </defs>
  <g id="Group_2539" data-name="Group 2539" transform="translate(0 -0.002)">
    <path id="Subtraction_5" data-name="Subtraction 5" d="M16720,18686h0a36.033,36.033,0,0,0-36-36h-342a36.115,36.115,0,0,0-36,35.617l0-125.613h414Z" transform="translate(-16306 -18560)" fill="url(#linear-gradient)"/>
    <g id="Mask_Group_47" data-name="Mask Group 47" clip-path="url(#clip-path)" style="mix-blend-mode: soft-light;isolation: isolate">
      <g id="Group_2535" data-name="Group 2535" transform="translate(-6671.992 -7216.07)">
        <g id="Group_2536" data-name="Group 2536" transform="translate(6547.231 7241.617)" opacity="0.5">
          <path id="Path_1372" data-name="Path 1372" d="M6690.5,7284a108.337,108.337,0,1,0,108.337,108.337A108.337,108.337,0,0,0,6690.5,7284Zm0,204.209a95.872,95.872,0,1,1,95.872-95.872A95.872,95.872,0,0,1,6690.5,7488.209Z" transform="translate(-6565.736 -7267.576)" fill="url(#linear-gradient-3)"/>
          <g id="Group_2535-2" data-name="Group 2535" transform="translate(0 0)" style="mix-blend-mode: soft-light;isolation: isolate">
            <circle id="Ellipse_177" data-name="Ellipse 177" cx="88.22" cy="88.22" r="88.22" transform="translate(0 124.761) rotate(-45)" fill="none" stroke="#fff" stroke-miterlimit="10" stroke-width="1"/>
          </g>
        </g>
        <path id="Path_1373" data-name="Path 1373" d="M6730.609,7440.051a72.26,72.26,0,0,1-62.866-107.858,72.732,72.732,0,0,1,24.726-25.745,115.786,115.786,0,0,0,15.083-11.179l.714-.624c7.244-6.3,15.632-32.222,18.252-41.68L6731.5,7235l2.877,18.418c.041.26,4.213,26.215,14.816,39.173l.093.114A37.9,37.9,0,0,0,6762,7302.727h0a72.253,72.253,0,0,1-31.326,137.325Zm-.833-170.606c-3.9,11.249-9.874,25.75-16.228,31.276l-.69.6a123.965,123.965,0,0,1-16.133,11.958A64.211,64.211,0,0,0,6730.609,7432h.059a64.2,64.2,0,0,0,27.832-122.026h0a46.022,46.022,0,0,1-15.451-12.175l-.1-.118C6736.575,7289.887,6732.355,7278.536,6729.775,7269.445Z" transform="translate(-58.876)" fill="url(#linear-gradient-4)"/>
      </g>
      <g id="Group_2537" data-name="Group 2537" transform="translate(-6292.896 -7313.019)">
        <g id="Group_2536-2" data-name="Group 2536" transform="translate(6547.231 7240.58)" opacity="0.5">
          <path id="Path_1372-2" data-name="Path 1372" d="M6673.522,7284a91.362,91.362,0,1,0,91.362,91.362A91.362,91.362,0,0,0,6673.522,7284Zm0,172.212a80.85,80.85,0,1,1,80.85-80.85A80.851,80.851,0,0,1,6673.522,7456.213Z" transform="translate(-6568.309 -7270.149)" fill="url(#linear-gradient-3)"/>
          <g id="Group_2535-3" data-name="Group 2535" transform="translate(0 0)" style="mix-blend-mode: soft-light;isolation: isolate">
            <circle id="Ellipse_177-2" data-name="Ellipse 177" cx="74.397" cy="74.397" r="74.397" transform="translate(0 105.213) rotate(-45)" fill="none" stroke="#fff" stroke-miterlimit="10" stroke-width="1"/>
          </g>
        </g>
        <path id="Path_1373-2" data-name="Path 1373" d="M6719.29,7407.922a60.938,60.938,0,0,1-53.016-90.958,61.33,61.33,0,0,1,20.852-21.712,97.685,97.685,0,0,0,12.72-9.427l.6-.526c6.109-5.313,13.182-27.174,15.392-35.15l4.2-15.149,2.426,15.533c.035.219,3.553,22.107,12.495,33.035l.079.1a31.964,31.964,0,0,0,10.726,8.451h0a60.932,60.932,0,0,1-26.418,115.808Zm-.7-143.875c-3.293,9.485-8.327,21.716-13.686,26.375l-.582.508a104.493,104.493,0,0,1-13.605,10.084,54.15,54.15,0,0,0,28.576,100.118h.05a54.143,54.143,0,0,0,23.47-102.907h0a38.812,38.812,0,0,1-13.029-10.268l-.081-.1C6724.321,7281.287,6720.762,7271.714,6718.587,7264.048Z" transform="translate(-67.064)" fill="url(#linear-gradient-4)"/>
      </g>
    </g>
  </g>
</svg>
