<svg xmlns="http://www.w3.org/2000/svg" width="24" height="24" viewBox="0 0 24 24">
  <g id="Group_2042" data-name="Group 2042" transform="translate(-1133 -42)">
    <path id="Path_851" data-name="Path 851" d="M1165.056,93h-3.042a1.014,1.014,0,1,0,0,2.028h3.042a1.014,1.014,0,0,0,0-2.028Z" transform="translate(-18.535 -33.761)" fill="#0088c6"/>
    <path id="Path_852" data-name="Path 852" d="M1157,49.944a4.557,4.557,0,0,0-.161-1.183h.012a1.544,1.544,0,0,0-.137-.307l-2.2-3.672A5.759,5.759,0,0,0,1149.6,42h-8.969a5.71,5.71,0,0,0-4.8,2.607l-2.47,3.8a1.534,1.534,0,0,0-.169.354h-.026a4.531,4.531,0,0,0,1.192,4.424v9.562A3.253,3.253,0,0,0,1137.606,66h14.451a3.253,3.253,0,0,0,3.253-3.254v-9.26A4.552,4.552,0,0,0,1157,49.944Zm-21.634-1.183,2.16-3.048a3.688,3.688,0,0,1,3.1-1.684h8.969a3.72,3.72,0,0,1,3.174,1.8l1.862,2.935h.043a2.533,2.533,0,1,1-4.767,1.352,2.907,2.907,0,0,0-2.721,0,2.532,2.532,0,0,1-5.053,0h-.017a1.665,1.665,0,0,0-2.011,0h-.017a2.534,2.534,0,1,1-4.767-1.352Zm17.916,13.986a1.227,1.227,0,0,1-1.225,1.225h-14.451a1.227,1.227,0,0,1-1.225-1.225v-8.4a5.986,5.986,0,0,1,8.282.161,4.548,4.548,0,0,1,7.775,0,4.581,4.581,0,0,0,.845-.081Z" fill="#0088c6"/>
  </g>
</svg>
