<svg xmlns="http://www.w3.org/2000/svg" xmlns:xlink="http://www.w3.org/1999/xlink" width="414" height="896" viewBox="0 0 414 896">
  <defs>
    <linearGradient id="linear-gradient" x1="0.5" x2="0.5" y2="1" gradientUnits="objectBoundingBox">
      <stop offset="0" stop-color="#43cef8"/>
      <stop offset="1" stop-color="#0088c6"/>
    </linearGradient>
    <clipPath id="clip-path">
      <rect id="Rectangle_651" data-name="Rectangle 651" width="414" height="896" fill="none" stroke="#707070" stroke-width="1"/>
    </clipPath>
    <linearGradient id="linear-gradient-3" x1="0.139" y1="0.247" x2="0.895" y2="0.778" gradientUnits="objectBoundingBox">
      <stop offset="0" stop-color="#fff" stop-opacity="0"/>
      <stop offset="1" stop-color="#fff" stop-opacity="0.4"/>
    </linearGradient>
    <linearGradient id="linear-gradient-4" y1="0.5" x2="1" y2="0.5" gradientUnits="objectBoundingBox">
      <stop offset="0" stop-color="#fff" stop-opacity="0.4"/>
      <stop offset="1" stop-color="#fff" stop-opacity="0"/>
    </linearGradient>
    <clipPath id="clip-path-2">
      <rect id="Rectangle_738" data-name="Rectangle 738" width="414" height="669" fill="url(#linear-gradient)"/>
    </clipPath>
  </defs>
  <rect id="Rectangle_108" data-name="Rectangle 108" width="414" height="896" fill="url(#linear-gradient)"/>
  <g id="Group_42" data-name="Group 42" clip-path="url(#clip-path)" style="mix-blend-mode: soft-light;isolation: isolate">
    <g id="Group_2527" data-name="Group 2527" transform="translate(-5215.271 -6938.894)">
      <g id="Group_2528" data-name="Group 2528" transform="translate(5215.231 7179.854)" opacity="0.5">
        <path id="Path_1364" data-name="Path 1364" d="M5429.927,7284a179.766,179.766,0,1,0,179.766,179.767A179.766,179.766,0,0,0,5429.927,7284Zm0,338.849a159.083,159.083,0,1,1,159.083-159.082A159.083,159.083,0,0,1,5429.927,7622.85Z" transform="translate(-5222.905 -7256.747)" fill="url(#linear-gradient-3)"/>
        <g id="Group_2527-2" data-name="Group 2527" transform="translate(0 0)" style="mix-blend-mode: soft-light;isolation: isolate">
          <circle id="Ellipse_176" data-name="Ellipse 176" cx="146.385" cy="146.385" r="146.385" transform="translate(0 207.02) rotate(-45)" fill="none" stroke="#fff" stroke-miterlimit="10" stroke-width="1"/>
        </g>
      </g>
    </g>
    <path id="Path_1365" data-name="Path 1365" d="M5456.862,7605.393a130.526,130.526,0,0,1-113.557-194.83,131.381,131.381,0,0,1,44.664-46.5,209.219,209.219,0,0,0,27.243-20.194l1.292-1.126c13.084-11.378,28.236-58.206,32.969-75.288l8.993-32.451,5.2,33.271c.074.468,7.611,47.352,26.764,70.759l.168.207a68.453,68.453,0,0,0,22.974,18.1h0A130.5,130.5,0,0,1,5587.36,7474.9c0,71.891-58.487,130.432-130.377,130.5Zm-1.505-308.174c-7.053,20.319-17.835,46.513-29.312,56.494l-1.247,1.09a223.945,223.945,0,0,1-29.141,21.6,115.987,115.987,0,0,0,61.207,214.449h.106a115.972,115.972,0,0,0,50.274-220.422h0a83.129,83.129,0,0,1-27.909-21.993l-.174-.213C5467.64,7334.144,5460.016,7313.64,5455.356,7297.219Z" transform="translate(-5250.222 -7023.683)" fill="url(#linear-gradient-4)"/>
  </g>
  <g id="Status">
    <rect id="Rectangle_52" data-name="Rectangle 52" width="414" height="30" fill="#43cef8"/>
    <g id="Group_34" data-name="Group 34" transform="translate(327.182 11)">
      <rect id="Rectangle_36" data-name="Rectangle 36" width="2.62" height="3.743" rx="1" transform="translate(0 5.241)" fill="#fff"/>
      <rect id="Rectangle_37" data-name="Rectangle 37" width="2.62" height="5.241" rx="1" transform="translate(3.743 3.743)" fill="#fff"/>
      <rect id="Rectangle_38" data-name="Rectangle 38" width="2.62" height="7.113" rx="1" transform="translate(7.487 1.872)" fill="#fff"/>
      <rect id="Rectangle_39" data-name="Rectangle 39" width="2.62" height="8.984" rx="1" transform="translate(11.23)" fill="#fff"/>
    </g>
    <text id="_16:06" data-name="16:06" transform="translate(24 20)" fill="#fff" font-size="15" font-family="SegoeUI, Segoe UI"><tspan x="0" y="0">16:06</tspan></text>
    <g id="Group_35" data-name="Group 35" transform="translate(342.092 8.657)">
      <path id="Path_60" data-name="Path 60" d="M851.764,1218.52a9.65,9.65,0,0,1,11.636.068l1.417-1.559a11.739,11.739,0,0,0-14.509-.038Z" transform="translate(-846.417 -1213.157)" fill="#fff"/>
      <path id="Path_61" data-name="Path 61" d="M857.684,1226.067a6.065,6.065,0,0,1,6.721.106l1.419-1.561a8.144,8.144,0,0,0-9.608-.087Z" transform="translate(-849.841 -1218.083)" fill="#fff"/>
      <path id="Path_62" data-name="Path 62" d="M864.624,1234.654l2.229-2.452a4.593,4.593,0,0,0-4.679-.121Z" transform="translate(-853.293 -1223.007)" fill="#fff"/>
    </g>
    <path id="Path_63" data-name="Path 63" d="M909.909,1224.918H894.766a3.77,3.77,0,0,1-3.766-3.766v-3.386a3.769,3.769,0,0,1,3.766-3.766h15.144a3.77,3.77,0,0,1,3.766,3.766v3.386A3.77,3.77,0,0,1,909.909,1224.918Zm-15.144-10.078a2.929,2.929,0,0,0-2.926,2.926v3.386a2.929,2.929,0,0,0,2.926,2.926h15.144a2.929,2.929,0,0,0,2.926-2.926v-3.386a2.929,2.929,0,0,0-2.926-2.926Z" transform="translate(-525.281 -1204)" fill="#fff"/>
    <rect id="Rectangle_40" data-name="Rectangle 40" width="8.398" height="6.977" rx="2" transform="translate(368.238 12)" fill="#fff"/>
    <path id="Path_64" data-name="Path 64" d="M947,1222.029v4.595a2.725,2.725,0,0,0,0-4.595Z" transform="translate(-557.766 -1209.029)" fill="#fff"/>
  </g>
  <g id="Mask_Group_46" data-name="Mask Group 46" transform="translate(0 64)" opacity="0.2" clip-path="url(#clip-path-2)">
    <g id="Group_2531" data-name="Group 2531" transform="translate(-5040.981 -7016.117)">
      <path id="Path_1366" data-name="Path 1366" d="M5248.389,7563.611a206,206,0,1,1-80.448,16.236,205.378,205.378,0,0,1,80.448-16.236m0-20.255c-125.34,0-226.949,101.609-226.949,226.949s101.609,226.949,226.949,226.949,226.949-101.609,226.949-226.949-101.608-226.949-226.949-226.949Z" transform="translate(0 -57.358)" fill="#fff"/>
      <path id="Path_1367" data-name="Path 1367" d="M5402.054,7489.614C5431.516,7478.336,5439.8,7430,5439.8,7430s7.014,54.781,42.176,59.615Z" transform="translate(-192.59 0)" fill="#fff"/>
    </g>
  </g>
  <g id="Group_2532" data-name="Group 2532" transform="translate(0 -7)">
    <g id="Group_2530" data-name="Group 2530" transform="translate(67 17)">
      <text id="THANYARAK" transform="translate(140 461)" fill="#fff" font-size="36" font-family="Kanit-SemiBold, Kanit" font-weight="600"><tspan x="-105.606" y="0">THANYARAK</tspan></text>
      <text id="Welcome_to" data-name="Welcome to" transform="translate(139 427)" fill="#fff" font-size="24" font-family="Kanit-Light, Kanit" font-weight="300"><tspan x="-62.892" y="0">Welcome to</tspan></text>
    </g>
  </g>
</svg>
