<svg xmlns="http://www.w3.org/2000/svg" width="10" height="6.986" viewBox="0 0 10 6.986">
  <path id="Path_913" data-name="Path 913" d="M286.284,379.614a6.321,6.321,0,0,1-1.133-1.319,4.61,4.61,0,0,0-7.3,0,6.316,6.316,0,0,1-1.133,1.319.44.44,0,0,0,0,.758,6.315,6.315,0,0,1,1.133,1.319,4.61,4.61,0,0,0,7.3,0,6.32,6.32,0,0,1,1.133-1.319.44.44,0,0,0,0-.758Zm-4.784,1.749a1.369,1.369,0,0,1-1.254-1.92c0,.012,0,.024,0,.037a.742.742,0,1,0,.742-.742l-.037,0a1.37,1.37,0,1,1,.551,2.624Z" transform="translate(-276.5 -376.5)" fill="#0088c6"/>
</svg>
